<svg xmlns="http://www.w3.org/2000/svg" width="166" height="166" viewBox="0 0 166 166"><g transform="translate(-0.333 -0.333)"><path d="M133.522,166H32.478a3.612,3.612,0,0,1-3.608-3.608,18.064,18.064,0,0,1,18.043-18.045H72.175V137.13H18.043A18.063,18.063,0,0,1,0,119.087V18.043A18.063,18.063,0,0,1,18.043,0H147.957A18.063,18.063,0,0,1,166,18.043V119.087a18.063,18.063,0,0,1-18.043,18.043H93.827v7.217h25.26a18.064,18.064,0,0,1,18.043,18.045A3.612,3.612,0,0,1,133.522,166ZM46.905,151.565a10.858,10.858,0,0,0-10.2,7.217h92.592a10.87,10.87,0,0,0-10.214-7.217ZM79.392,137.13v7.217H86.61V137.13ZM7.217,115.477v3.61a10.837,10.837,0,0,0,10.825,10.825H147.957a10.837,10.837,0,0,0,10.825-10.825v-3.61ZM18.043,7.217A10.837,10.837,0,0,0,7.217,18.043V108.26H158.782V18.043A10.837,10.837,0,0,0,147.957,7.217Z" transform="translate(0.333 0.333)" fill="#020003"/><path d="M6.158,13.38l1.054-1.054V25.267a3.612,3.612,0,0,0,7.225,0V3.615A3.613,3.613,0,0,0,8.273,1.06L1.056,8.278a3.608,3.608,0,0,0,5.1,5.1Z" transform="translate(79.73 21.979)" fill="#020003"/><path d="M6.158,13.38l1.054-1.054V25.267a3.609,3.609,0,0,0,7.217,0V3.615A3.607,3.607,0,0,0,8.273,1.06L1.056,8.278a3.608,3.608,0,0,0,5.1,5.1Z" transform="translate(101.382 21.979)" fill="#020003"/><path d="M18.043,28.87H3.608A3.613,3.613,0,0,1,0,25.26V3.608A3.612,3.612,0,0,1,3.608,0H18.043a3.613,3.613,0,0,1,3.61,3.608V25.26A3.614,3.614,0,0,1,18.043,28.87ZM7.217,7.217V21.652h7.217V7.217Z" transform="translate(50.855 21.986)" fill="#020003"/><path d="M18.043,28.87H3.608A3.613,3.613,0,0,1,0,25.26V3.608A3.612,3.612,0,0,1,3.608,0H18.043a3.613,3.613,0,0,1,3.61,3.608V25.26A3.614,3.614,0,0,1,18.043,28.87ZM7.217,7.217V21.652h7.217V7.217Z" transform="translate(21.986 21.986)" fill="#020003"/><path d="M18.043,28.87H3.608A3.613,3.613,0,0,1,0,25.26V3.608A3.612,3.612,0,0,1,3.608,0H18.043a3.613,3.613,0,0,1,3.61,3.608V25.26A3.614,3.614,0,0,1,18.043,28.87ZM7.217,7.217V21.652h7.217V7.217Z" transform="translate(123.029 21.986)" fill="#020003"/><path d="M12.206.277a3.6,3.6,0,0,0-3.933.779L1.056,8.274a3.608,3.608,0,0,0,5.1,5.1l1.054-1.054V25.264a3.612,3.612,0,0,0,7.225,0V3.612A3.609,3.609,0,0,0,12.206.277Z" transform="translate(50.861 65.287)" fill="#020003"/><path d="M6.158,13.377l1.054-1.054V25.264a3.609,3.609,0,0,0,7.217,0V3.612A3.607,3.607,0,0,0,8.273,1.057L1.056,8.274a3.608,3.608,0,0,0,5.1,5.1Z" transform="translate(101.382 65.287)" fill="#020003"/><path d="M18.043,28.87H3.608A3.613,3.613,0,0,1,0,25.26V3.608A3.612,3.612,0,0,1,3.608,0H18.043a3.613,3.613,0,0,1,3.61,3.608V25.26A3.614,3.614,0,0,1,18.043,28.87ZM7.217,7.217V21.652h7.217V7.217Z" transform="translate(72.507 65.29)" fill="#020003"/><path d="M18.043,28.87H3.608A3.613,3.613,0,0,1,0,25.26V3.608A3.612,3.612,0,0,1,3.608,0H18.043a3.613,3.613,0,0,1,3.61,3.608V25.26A3.614,3.614,0,0,1,18.043,28.87ZM7.217,7.217V21.652h7.217V7.217Z" transform="translate(21.986 65.29)" fill="#020003"/><path d="M18.043,28.87H3.608A3.613,3.613,0,0,1,0,25.26V3.608A3.612,3.612,0,0,1,3.608,0H18.043a3.613,3.613,0,0,1,3.61,3.608V25.26A3.614,3.614,0,0,1,18.043,28.87ZM7.217,7.217V21.652h7.217V7.217Z" transform="translate(123.029 65.29)" fill="#020003"/></g></svg>