<svg xmlns="http://www.w3.org/2000/svg" width="132.935" height="176.538" viewBox="0 0 132.935 176.538"><g transform="translate(-0.449 -0.003)"><path d="M74.779,176.538H58.164a2.767,2.767,0,0,1-2.769-2.758V165.5H47.087a2.767,2.767,0,0,1-2.769-2.758V140.678H38.779v-5.517h5.539v-6.538A66.2,66.2,0,0,1,66.413,0a67.23,67.23,0,0,1,7.566.428,66.433,66.433,0,0,1,54.463,41.826,66.049,66.049,0,0,1-39.816,86.369v6.538h5.539v5.517H88.626v22.067a2.767,2.767,0,0,1-2.769,2.758H77.549v8.276A2.767,2.767,0,0,1,74.779,176.538ZM60.933,165.5v5.517H72.01V165.5ZM49.856,151.711v8.276H83.087v-8.276Zm0-11.033v5.516H83.087v-5.516Zm0-11.034v5.517H83.087v-5.517ZM69.241,52.408v71.719H85.026A60.69,60.69,0,1,0,13.412,36.485a60.659,60.659,0,0,0,34.506,87.642H63.7V52.408H58.164A2.767,2.767,0,0,1,55.4,49.649V45.208a17.852,17.852,0,0,0-6.733,5.465,23.811,23.811,0,0,0-4.344,12.768h2.769A2.767,2.767,0,0,1,49.856,66.2V77.234a2.767,2.767,0,0,1-2.769,2.758H36.01a2.767,2.767,0,0,1-2.769-2.758V66.2a2.767,2.767,0,0,1,2.769-2.758h3.047a27.144,27.144,0,0,1,8.308-19.309H41.549v2.758a2.767,2.767,0,0,1-2.769,2.758H27.7a2.767,2.767,0,0,1-2.769-2.758V35.857A2.767,2.767,0,0,1,27.7,33.1H38.779a2.767,2.767,0,0,1,2.769,2.758v2.758H55.4V33.1a2.767,2.767,0,0,1,2.769-2.759H74.779A2.767,2.767,0,0,1,77.549,33.1v5.517H91.4V35.857A2.767,2.767,0,0,1,94.164,33.1h11.076a2.767,2.767,0,0,1,2.769,2.758V46.891a2.767,2.767,0,0,1-2.769,2.758H94.164A2.767,2.767,0,0,1,91.4,46.891V44.132H85.856a27.144,27.144,0,0,1,8.308,19.309h2.768A2.767,2.767,0,0,1,99.7,66.2V77.234a2.767,2.767,0,0,1-2.769,2.758H85.856a2.767,2.767,0,0,1-2.769-2.758V66.2a2.767,2.767,0,0,1,2.769-2.758h2.769C87.611,51.632,81.25,46.948,77.549,45.208v4.441a2.767,2.767,0,0,1-2.769,2.758Zm19.385,16.55v5.517h5.539V68.958Zm-49.847,0v5.517h5.539V68.958Zm22.154-33.1V46.891H72.01V35.857Zm36,2.758v5.517h5.539V38.615Zm-66.461,0v5.517H36.01V38.615Z" transform="translate(0.452 0.003)" fill="#232931"/><path d="M23.428,0A44.111,44.111,0,0,1,0,38.949L2.6,43.8A49.625,49.625,0,0,0,28.966,0Z" transform="translate(87.803 66.203)" fill="#232931"/><rect width="5.538" height="5.517" transform="translate(111.231 55.169)" fill="#232931"/></g></svg>