<svg xmlns="http://www.w3.org/2000/svg" width="171.27" height="170.468" viewBox="0 0 171.27 170.468"><g transform="translate(0 -0.246)"><path d="M49.046,54.485H2.595A2.451,2.451,0,0,1,0,51.9V45.447A18.084,18.084,0,0,1,5.093,32.827a17.669,17.669,0,0,1,12.293-5.455,14.2,14.2,0,0,1-4.93-5.229,14.946,14.946,0,0,1-1.816-7.166,14.4,14.4,0,0,1,1.225-5.826A15.056,15.056,0,0,1,15.181,4.39a15.494,15.494,0,0,1,4.873-3.212A15.542,15.542,0,0,1,36.816,4.39a14.742,14.742,0,0,1,4.444,10.587,14.364,14.364,0,0,1-1.816,7.069,15.684,15.684,0,0,1-4.931,5.326,17.612,17.612,0,0,1,6.618,1.7,18.542,18.542,0,0,1,5.45,3.95,17.958,17.958,0,0,1,5.06,12.427V51.9A2.451,2.451,0,0,1,49.046,54.485ZM18.165,32.536a12.858,12.858,0,0,0-4.983,1A13.065,13.065,0,0,0,9.05,36.28a12.756,12.756,0,0,0-3.86,9.167V49.32h41V45.447a12.688,12.688,0,0,0-1.006-4.959,13.011,13.011,0,0,0-11.969-7.953ZM25.95,4.906a10.133,10.133,0,0,0-3.88.77,10.319,10.319,0,0,0-3.224,2.1,9.6,9.6,0,0,0-.1,13.88,10.461,10.461,0,0,0,14.4,0,9.6,9.6,0,0,0-.1-13.88,10.319,10.319,0,0,0-3.224-2.1A10.133,10.133,0,0,0,25.95,4.906Z" transform="translate(0 116.228)" fill="#232931"/><path d="M96.275,116.2H49.824a2.451,2.451,0,0,1-2.595-2.582V106.9a17.851,17.851,0,0,1,5.092-12.427,18.427,18.427,0,0,1,12.294-5.648,14.187,14.187,0,0,1-4.93-5.229A15.033,15.033,0,0,1,61.5,66.622a15.577,15.577,0,0,1,9.083-5.165V56.292H13.494A2.451,2.451,0,0,1,10.9,53.71V8.78L4.412,15.235a2.575,2.575,0,0,1-1.817.775,2.574,2.574,0,0,1-1.816-.775,2.488,2.488,0,0,1,0-3.615L11.678.775A2.8,2.8,0,0,1,13.494,0a2.356,2.356,0,0,1,1.817.775L25.95,11.62a2.563,2.563,0,1,1-3.632,3.615l-6.228-6.2V51.386h114.44V9.038l-6.488,6.2a2.516,2.516,0,0,1-3.632,0,2.488,2.488,0,0,1,0-3.615L131.307.775A2.8,2.8,0,0,1,133.124,0a2.352,2.352,0,0,1,1.816.775l10.64,10.845a2.488,2.488,0,0,1,0,3.615,2.517,2.517,0,0,1-3.633,0l-6.228-6.2V54.227a2.451,2.451,0,0,1-2.595,2.582H75.774v5.164a14.466,14.466,0,0,1,8.855,4.938,15.044,15.044,0,0,1,3.6,9.78,14.364,14.364,0,0,1-1.816,7.069,15.688,15.688,0,0,1-4.93,5.326,18.18,18.18,0,0,1,12.2,5.648,18.7,18.7,0,0,1,5.189,12.427v6.456A2.451,2.451,0,0,1,96.275,116.2ZM65.394,94.251a12.859,12.859,0,0,0-4.983,1,13.067,13.067,0,0,0-4.132,2.744,12.755,12.755,0,0,0-3.86,9.167v3.873h41v-3.873a12.688,12.688,0,0,0-1.006-4.959,13.011,13.011,0,0,0-11.97-7.953Zm7.785-27.63a10.219,10.219,0,0,0-7.2,2.873,9.6,9.6,0,0,0,.1,13.88,10.318,10.318,0,0,0,3.224,2.1,10.36,10.36,0,0,0,11.081-2.1,9.6,9.6,0,0,0-.1-13.88,10.319,10.319,0,0,0-3.224-2.1A10.132,10.132,0,0,0,73.179,66.621Z" transform="translate(12.715 54.513)" fill="#232931"/><path d="M49.046,54.485H2.595A2.451,2.451,0,0,1,0,51.9V45.447A17.848,17.848,0,0,1,5.093,33.02a18.422,18.422,0,0,1,12.293-5.648,14.2,14.2,0,0,1-4.93-5.229,14.946,14.946,0,0,1-1.816-7.166A14.741,14.741,0,0,1,15.083,4.39a15.644,15.644,0,0,1,21.733,0,14.742,14.742,0,0,1,4.444,10.587,14.364,14.364,0,0,1-1.816,7.069,15.684,15.684,0,0,1-4.931,5.326A18.146,18.146,0,0,1,51.64,45.447V51.9A2.451,2.451,0,0,1,49.046,54.485ZM18.165,32.536a12.858,12.858,0,0,0-4.983,1A13.065,13.065,0,0,0,9.05,36.28a12.756,12.756,0,0,0-3.86,9.167V49.32H46.451V45.447a12.687,12.687,0,0,0-1.006-4.959,13.012,13.012,0,0,0-11.97-7.953ZM25.95,4.906a9.98,9.98,0,0,0-7.007,2.873,10.365,10.365,0,0,0-3.114,6.94,9.571,9.571,0,0,0,3.017,6.94,10.319,10.319,0,0,0,3.224,2.1,10.36,10.36,0,0,0,11.081-2.1,9.6,9.6,0,0,0-.1-13.88,10.319,10.319,0,0,0-3.224-2.1A10.133,10.133,0,0,0,25.95,4.906Z" transform="translate(119.63 116.228)" fill="#232931"/><path d="M49.046,54.485H2.595A2.6,2.6,0,0,1,0,51.9V45.447A17.848,17.848,0,0,1,5.093,33.02a18.422,18.422,0,0,1,12.293-5.648,14.2,14.2,0,0,1-4.93-5.229,14.946,14.946,0,0,1-1.816-7.166A14.741,14.741,0,0,1,15.083,4.39a15.644,15.644,0,0,1,21.733,0,14.742,14.742,0,0,1,4.444,10.587,14.364,14.364,0,0,1-1.816,7.069,15.684,15.684,0,0,1-4.931,5.326A18.146,18.146,0,0,1,51.64,45.447V51.9A2.451,2.451,0,0,1,49.046,54.485ZM18.165,32.536a12.858,12.858,0,0,0-4.983,1A13.065,13.065,0,0,0,9.05,36.28a12.756,12.756,0,0,0-3.86,9.167V49.32H46.451V45.447a12.687,12.687,0,0,0-1.006-4.959,13.012,13.012,0,0,0-11.97-7.953ZM25.95,4.906a9.98,9.98,0,0,0-7.007,2.873,10.365,10.365,0,0,0-3.114,6.94,9.571,9.571,0,0,0,3.017,6.94,10.319,10.319,0,0,0,3.224,2.1,10.36,10.36,0,0,0,11.081-2.1,9.6,9.6,0,0,0-.1-13.88,10.319,10.319,0,0,0-3.224-2.1A10.133,10.133,0,0,0,25.95,4.906Z" transform="translate(59.944 47.025)" fill="#232931"/><path d="M4.411,15.276,10.9,8.821V38.258a2.446,2.446,0,0,0,2.6,2.582,2.446,2.446,0,0,0,2.6-2.582V8.821l6.228,6.2a2.517,2.517,0,0,0,3.633,0,2.488,2.488,0,0,0,0-3.615L15.311.558h0C14.273-.217,12.975.041,13.494.041a2.361,2.361,0,0,0-1.817.775h0L.779,11.661a2.488,2.488,0,0,0,0,3.615A2.773,2.773,0,0,0,4.411,15.276Z" transform="translate(72.66 0.246)" fill="#232931"/></g></svg>