<svg xmlns="http://www.w3.org/2000/svg" width="157.748" height="159.094" viewBox="0 0 157.748 159.094"><path d="M78.414,159.094a2.7,2.7,0,0,1-2.693-2.7V126.082H24.515v13.465a2.693,2.693,0,1,1-5.386,0V123.386a2.7,2.7,0,0,1,2.694-2.7h53.9V105.636H62.783a4.889,4.889,0,0,1-4.88-4.888V87.3H42v13.445a4.888,4.888,0,0,1-4.878,4.888H4.878A4.888,4.888,0,0,1,0,100.748V68.462a4.888,4.888,0,0,1,4.878-4.886H37.127A4.888,4.888,0,0,1,42,68.462V81.911h15.9V68.462a4.888,4.888,0,0,1,4.88-4.886H75.723v-15.3H47.429a5.26,5.26,0,0,1-5.251-5.257V5.257A5.26,5.26,0,0,1,47.429,0h61.977a5.26,5.26,0,0,1,5.251,5.257v37.76a5.26,5.26,0,0,1-5.251,5.257H81.11v15.3H95.03a4.889,4.889,0,0,1,4.882,4.886V81.911h15.832V68.462a4.888,4.888,0,0,1,4.879-4.886H152.87a4.887,4.887,0,0,1,4.878,4.884v32.287a4.888,4.888,0,0,1-4.878,4.888H120.622a4.889,4.889,0,0,1-4.879-4.888V87.3H99.912v13.445a4.89,4.89,0,0,1-4.882,4.888H81.11v15.052h53.811a2.7,2.7,0,0,1,2.694,2.7v16.161a2.693,2.693,0,1,1-5.387,0V126.082H81.108V156.4A2.7,2.7,0,0,1,78.414,159.094ZM121.13,68.969v31.274h31.232V68.969Zm-57.838,0v31.274H94.525V68.969Zm-57.905,0v31.274H36.618V68.969ZM78.42,27.313,53.5,42.88h49.831L78.42,27.313ZM47.565,8.036v32.2l25.771-16.1Zm61.707,0L83.5,24.134l25.767,16.1V8.036ZM53.508,5.394,78.42,20.958,103.332,5.394Z" fill="#232931"/></svg>