<svg xmlns="http://www.w3.org/2000/svg" xmlns:xlink="http://www.w3.org/1999/xlink" width="1521" height="1689" viewBox="0 0 1521 1689"><defs><clipPath id="a"><rect width="1521" height="1689" transform="translate(995 83)" fill="#fff" stroke="#707070" stroke-width="1"/></clipPath></defs><g transform="translate(-995 -83)" clip-path="url(#a)"><g transform="translate(1103.354 968.551) rotate(-45)" opacity="0.03"><path d="M1007.537,1252.606H245.07a27.253,27.253,0,0,1-27.222-27.222c0-75.081,61.075-136.164,136.146-136.164H544.619v-54.462H136.146C61.075,1034.759,0,973.684,0,898.613V136.146C0,61.075,61.075,0,136.146,0h980.315c75.071,0,136.146,61.075,136.146,136.146V898.613c0,75.071-61.075,136.146-136.146,136.146H708.005v54.462H898.613c75.071,0,136.146,61.083,136.146,136.164A27.253,27.253,0,0,1,1007.537,1252.606Zm-653.6-108.924a81.933,81.933,0,0,0-77,54.462H975.628a82.021,82.021,0,0,0-77.07-54.462Zm245.143-108.924v54.462h54.462v-54.462ZM54.462,871.373v27.24A81.776,81.776,0,0,0,136.146,980.3h980.315a81.776,81.776,0,0,0,81.684-81.684v-27.24ZM136.146,54.462a81.776,81.776,0,0,0-81.684,81.684V816.911H1198.145V136.146a81.776,81.776,0,0,0-81.684-81.684Z" transform="translate(0.333 0.333)" fill="#020003"/><path d="M46.469,100.965l7.951-7.951v97.649a27.258,27.258,0,0,0,54.516,0V27.279A27.261,27.261,0,0,0,62.426,8L7.965,62.461a27.227,27.227,0,0,0,38.5,38.5Z" transform="translate(599.448 163.669)" fill="#020003"/><path d="M46.469,100.965l7.951-7.951v97.649a27.231,27.231,0,1,0,54.461,0V27.279A27.217,27.217,0,0,0,62.426,8L7.965,62.461a27.227,27.227,0,0,0,38.5,38.5Z" transform="translate(762.832 163.669)" fill="#020003"/><path d="M136.146,217.848H27.222A27.262,27.262,0,0,1,0,190.608V27.222A27.253,27.253,0,0,1,27.222,0H136.146a27.262,27.262,0,0,1,27.24,27.222V190.608A27.271,27.271,0,0,1,136.146,217.848ZM54.462,54.462V163.386h54.462V54.462Z" transform="translate(381.562 163.717)" fill="#020003"/><path d="M136.146,217.848H27.222A27.262,27.262,0,0,1,0,190.608V27.222A27.253,27.253,0,0,1,27.222,0H136.146a27.262,27.262,0,0,1,27.24,27.222V190.608A27.271,27.271,0,0,1,136.146,217.848ZM54.462,54.462V163.386h54.462V54.462Z" transform="translate(163.717 163.717)" fill="#020003"/><path d="M136.146,217.848H27.222A27.262,27.262,0,0,1,0,190.608V27.222A27.253,27.253,0,0,1,27.222,0H136.146a27.262,27.262,0,0,1,27.24,27.222V190.608A27.271,27.271,0,0,1,136.146,217.848ZM54.462,54.462V163.386h54.462V54.462Z" transform="translate(926.175 163.717)" fill="#020003"/><path d="M92.108,2.094A27.189,27.189,0,0,0,62.426,7.976L7.965,62.437a27.227,27.227,0,1,0,38.5,38.5L54.42,92.99v97.649a27.258,27.258,0,0,0,54.516,0V27.255A27.23,27.23,0,0,0,92.108,2.094Z" transform="translate(381.603 490.46)" fill="#020003"/><path d="M46.469,100.941,54.42,92.99v97.649a27.231,27.231,0,0,0,54.461,0V27.255A27.217,27.217,0,0,0,62.426,7.976L7.965,62.437a27.227,27.227,0,1,0,38.5,38.5Z" transform="translate(762.832 490.46)" fill="#020003"/><path d="M136.146,217.848H27.222A27.262,27.262,0,0,1,0,190.608V27.222A27.253,27.253,0,0,1,27.222,0H136.146a27.262,27.262,0,0,1,27.24,27.222V190.608A27.271,27.271,0,0,1,136.146,217.848ZM54.462,54.462V163.386h54.462V54.462Z" transform="translate(544.946 490.485)" fill="#020003"/><path d="M136.146,217.848H27.222A27.262,27.262,0,0,1,0,190.608V27.222A27.253,27.253,0,0,1,27.222,0H136.146a27.262,27.262,0,0,1,27.24,27.222V190.608A27.271,27.271,0,0,1,136.146,217.848ZM54.462,54.462V163.386h54.462V54.462Z" transform="translate(163.717 490.485)" fill="#020003"/><path d="M136.146,217.848H27.222A27.262,27.262,0,0,1,0,190.608V27.222A27.253,27.253,0,0,1,27.222,0H136.146a27.262,27.262,0,0,1,27.24,27.222V190.608A27.271,27.271,0,0,1,136.146,217.848ZM54.462,54.462V163.386h54.462V54.462Z" transform="translate(926.175 490.485)" fill="#020003"/></g></g></svg>