<svg xmlns="http://www.w3.org/2000/svg" width="79" height="79" viewBox="0 0 79 79"><g transform="translate(2 2)"><g transform="translate(18 18)"><path d="M8.041,35.248a.813.813,0,0,1-.211-1.087A28.088,28.088,0,0,1,23.462,22.192a.811.811,0,0,1,1,.5,53.42,53.42,0,0,1,3.024,13.99.812.812,0,0,1-.5.811A19.438,19.438,0,0,1,8.041,35.248Zm21.389.579a.809.809,0,0,1-.461-.65,55.358,55.358,0,0,0-2.872-12.7.814.814,0,0,1,.625-1.071,24.745,24.745,0,0,1,11.4.518.813.813,0,0,1,.567.916A19.559,19.559,0,0,1,30.225,35.77a.815.815,0,0,1-.795.057ZM5.458,33A19.4,19.4,0,0,1,0,19.493c0-.214.013-.424.028-.634l.018-.3a.814.814,0,0,1,.806-.773,70.532,70.532,0,0,0,19.588-2.545.814.814,0,0,1,.958.407c.642,1.247,1.253,2.554,1.866,4a.813.813,0,0,1-.5,1.094A29.727,29.727,0,0,0,6.726,32.882a.81.81,0,0,1-.6.367c-.026,0-.052,0-.078,0A.81.81,0,0,1,5.458,33ZM37.973,20.161a26.88,26.88,0,0,0-12.124-.229.805.805,0,0,1-.912-.484c-.581-1.4-1.22-2.791-1.9-4.131a.811.811,0,0,1,.427-1.121,22.531,22.531,0,0,0,9.9-6.952A.815.815,0,0,1,34,6.926a.756.756,0,0,1,.644.3,19.3,19.3,0,0,1,4.345,12.147.81.81,0,0,1-1.021.788Zm-36.682-4A.812.812,0,0,1,.5,15.166,19.417,19.417,0,0,1,10.865,2.028a.812.812,0,0,1,.949.167,57.158,57.158,0,0,1,7.935,10.493.8.8,0,0,1,.055.713.816.816,0,0,1-.531.48A69.485,69.485,0,0,1,1.3,16.159Zm20.2-3.7a59.26,59.26,0,0,0-7.6-10.4A.813.813,0,0,1,14.28.72,19.4,19.4,0,0,1,32.243,4.757a.809.809,0,0,1,.13,1.085c-2.072,2.9-5.4,5.247-9.881,6.966a.813.813,0,0,1-1-.354Z" transform="translate(0.003 0.003)" fill="#232931"/></g><circle cx="37.5" cy="37.5" r="37.5" fill="none" stroke="#232931" stroke-miterlimit="10" stroke-width="4" opacity="0.5"/></g></svg>