<svg xmlns="http://www.w3.org/2000/svg" width="79" height="79" viewBox="0 0 79 79"><g transform="translate(2 2)"><g transform="translate(20 20)"><path d="M26.979,35a.729.729,0,0,1-.729-.729V21.146a3.432,3.432,0,0,0-1.895-3.406,3.817,3.817,0,0,0-3.939.811V34.271a.729.729,0,0,1-.729.729H12.4a.729.729,0,0,1-.729-.729V12.4a.729.729,0,0,1,.729-.729h7.292a.728.728,0,0,1,.706.547,11.073,11.073,0,0,1,9.353-1.552c2.352.8,5.171,3.023,5.254,9.015V34.271a.729.729,0,0,1-.729.729ZM.729,35A.729.729,0,0,1,0,34.271V12.4a.729.729,0,0,1,.729-.729H8.021a.729.729,0,0,1,.729.729V34.271A.729.729,0,0,1,8.021,35ZM0,4.375A4.375,4.375,0,1,1,4.375,8.75,4.375,4.375,0,0,1,0,4.375Z" fill="#232931"/></g><circle cx="37.5" cy="37.5" r="37.5" fill="none" stroke="#232931" stroke-miterlimit="10" stroke-width="4" opacity="0.5"/></g></svg>