<svg xmlns="http://www.w3.org/2000/svg" width="66.32" height="66.32" viewBox="0 0 66.32 66.32"><path d="M61.542,27H93.32V58.778c-2.143-5.542-4.287-11.084-6.7-17.333-5.27,3.921-9.14,7.2-13.4,9.855-4.215,2.631-4.356,5.484-2.6,9.8,5.759,14.172,6.063,11.875-8.445,14.988-8.271,1.775-16.515,3.678-26.279,5.86,3.6,2.566,5.474,4.388,7.711,5.387,4.96,2.215,10.105,4.018,15.175,5.988H27V61.542l5.145,14.5L55.533,65.456,41.648,49.625,78.167,35.4l.058-1.966Z" transform="translate(-27 -27)" fill="#fff"/><path d="M56.322,89.33c-5.069-1.97-10.215-3.773-15.175-5.988-2.237-1-4.106-2.821-7.711-5.387,9.764-2.182,18.009-4.084,26.279-5.86,14.507-3.113,14.2-.817,8.445-14.988-1.752-4.312-1.611-7.165,2.6-9.8,4.256-2.657,8.126-5.934,13.4-9.855,2.417,6.249,4.561,11.791,6.7,17.333v2.763a17.071,17.071,0,0,0-1.7,3.642C86.142,75.882,77.633,84.944,62.615,87.561c-1.241.217-2.356,1.162-3.53,1.769Z" transform="translate(-24.544 -23.01)"/><path d="M61.542,27l16.684,6.43L78.167,35.4,41.648,49.625,55.533,65.456,32.145,76.045,27,61.542V58.778a17.04,17.04,0,0,0,1.7-3.646c3.016-14.7,11.534-23.754,26.56-26.357C56.5,28.56,57.609,27.609,58.778,27Z" transform="translate(-27 -27)"/><path d="M58.778,27c-1.169.609-2.277,1.56-3.515,1.775-15.026,2.6-23.544,11.66-26.56,26.357A17.04,17.04,0,0,1,27,58.778V27Z" transform="translate(-27 -27)" fill="#fff"/><path d="M52,83.778c1.174-.607,2.289-1.552,3.53-1.769,15.017-2.617,23.527-11.679,26.546-26.368A17.071,17.071,0,0,1,83.778,52V83.778Z" transform="translate(-17.458 -17.458)" fill="#fff"/></svg>