<svg xmlns="http://www.w3.org/2000/svg" width="57.64" height="57.64" viewBox="0 0 57.64 57.64"><path d="M42.037,0H15.6A15.62,15.62,0,0,0,0,15.6V42.038a15.62,15.62,0,0,0,15.6,15.6H42.038a15.62,15.62,0,0,0,15.6-15.6V15.6A15.62,15.62,0,0,0,42.037,0ZM28.82,44.58A15.76,15.76,0,1,1,44.58,28.82,15.778,15.778,0,0,1,28.82,44.58Zm16.137-27.8a4.657,4.657,0,1,1,4.657-4.657A4.662,4.662,0,0,1,44.957,16.776Zm0,0"/><path d="M158.4,146.02A12.381,12.381,0,1,0,170.782,158.4,12.4,12.4,0,0,0,158.4,146.02Zm0,0" transform="translate(-129.581 -129.581)"/><path d="M389.27,96.3a1.278,1.278,0,1,0,1.278,1.278A1.28,1.28,0,0,0,389.27,96.3Zm0,0" transform="translate(-344.313 -85.459)"/></svg>