<svg xmlns="http://www.w3.org/2000/svg" width="58.011" height="58.011" viewBox="0 0 58.011 58.011"><g transform="translate(-224.469 -1979.469)"><g transform="translate(224.469 1979.469)"><path d="M0,0H58.011V58.011H0ZM13.843,19.4V36.626a1.982,1.982,0,0,1-.528,1.71L9.222,43.3v.655H20.83V43.3l-4.094-4.966a2.055,2.055,0,0,1-.564-1.71v-14.9L26.361,43.956h1.183l8.751-22.227V39.445c0,.473,0,.564-.309.873l-3.148,3.056v.655H48.121v-.655l-3.038-2.983a.909.909,0,0,1-.346-.873V17.6a.909.909,0,0,1,.346-.873l3.111-2.983V13.09H37.423L29.745,32.242,21.012,13.09H9.713v.655l3.639,4.383A1.509,1.509,0,0,1,13.843,19.4Z"/></g></g></svg>